<?xml version="1.0" encoding="utf-8"?>
<!-- Generator: Adobe Illustrator 17.0.0, SVG Export Plug-In . SVG Version: 6.00 Build 0)  -->
<!DOCTYPE svg PUBLIC "-//W3C//DTD SVG 1.1//EN" "http://www.w3.org/Graphics/SVG/1.1/DTD/svg11.dtd">
<svg version="1.1" id="Layer_1" xmlns="http://www.w3.org/2000/svg" xmlns:xlink="http://www.w3.org/1999/xlink" x="0px" y="0px"
	 width="1024px" height="1024px" viewBox="0 0 1024 1024" enable-background="new 0 0 1024 1024" xml:space="preserve">
<g>
	<path fill="#1CA9B7" d="M944,80v864H80V80H944 M1024,0H0v1024h1024V0L1024,0z"/>
</g>
<g>
	<path fill="#1CA9B7" d="M663.98,725.196c-36.72,31.96-87.496,47.939-152.319,47.939c-65.737,0-116.62-15.862-152.66-47.6
		c-36.04-31.727-54.061-80.687-54.061-146.88v-301.92h106.761v301.92c0,13.153,1.126,26.073,3.399,38.76
		c2.264,12.697,7.023,23.917,14.28,33.66c7.246,9.754,17.34,17.68,30.26,23.8s30.26,9.18,52.021,9.18c38.08,0,64.366-8.5,78.88-25.5
		c14.503-17,21.76-43.626,21.76-79.899v-301.92h106.76v301.92C719.061,644.393,700.701,693.236,663.98,725.196z"/>
</g>
</svg>
